<svg xmlns="http://www.w3.org/2000/svg" height="800" width="1200" viewBox="-60.890925 -25 527.72135 150"><path d="M53.0963 100C21.2746 99.9856 0 77.4422 0 50.083 0 22.7383 21.3178-.0863 53.053.0002h299.8479c31.7208-.0865 53.0386 22.738 53.0386 50.0828 0 27.3592-21.2674 49.9026-53.089 49.917z" fill="#ed1c24"/><path d="M53.19 12.292c-25.2036.0433-40.6603 16.8986-40.6603 37.7261 0 20.8348 15.3774 37.8054 40.6603 37.719h299.5523c25.3045.0864 40.6674-16.8842 40.6674-37.719 0-20.8275-15.4638-37.6828-40.6674-37.726z" fill="#fff"/><path d="M40.2638 26.3717h14.678l20.2941 32.831-.0075-32.831h14.5483v47.0838H75.2428l-20.395-32.831v32.831H40.2635V26.3717zm128.6349 4.8447h14.1735v6.337h7.6634v4.6571h-7.6635l.0144 31.245h-14.1878l.007-31.245h-7.6923v-4.6428l7.6923-.0143-.007-6.337zM97.8802 42.1456h14.159v31.317h-14.159zm-.036-15.7883h14.195v9.6316h-14.195zm248.1286 13.6616c-11.4267 0-20.6906 7.858-20.6906 17.569 0 9.7036 9.2639 17.5762 20.6906 17.5762 11.4339 0 20.6834-7.8726 20.6834-17.5762 0-9.711-9.2495-17.569-20.6834-17.569m5.688 17.5257s-.0143 4.7293-.0143 6.6325c0 4.9889-2.9414 7.0435-5.789 7.0435-2.8405 0-5.8035-2.0546-5.8035-7.0435 0-1.9032.007-6.755.007-6.755s.008-4.6212.008-6.5172c0-4.9744 2.9774-7.0146 5.789-7.0146 2.826 0 5.789 2.0402 5.789 7.0146 0 1.896-.007 5.407.0145 6.6541v-.0143zm-44.8632.1009V52.044c0-4.8446-3.3451-6.0702-5.544-6.0702-2.2564 0-5.551 1.2256-5.551 6.0702v11.1456c0 4.8518 3.2946 6.099 5.551 6.099 2.1989 0 5.544-1.2472 5.544-6.099zm-.0937-31.2738h13.9643v47.0766h-13.9931s-.007-1.5212-.007-1.8024c-5.4142 3.3884-11.5277 3.3884-16.3002 1.1824-1.276-.6056-9.6748-4.6356-9.6748-15.536 0-8.2618 7.786-17.2878 17.9943-16.3867 3.3595.2956 5.7458 1.5212 8.0167 2.8044V26.3717zM145.1802 40.7038c5.2988-.1514 16.0262 3.309 15.9541 15.7018-.0144 2.2132-.007 17.0427-.007 17.0427h-14.058V52.8874c0-2.7323-2.6098-5.7602-6.474-5.7602-3.8569 0-6.719 3.028-6.719 5.7602 0 1.3337.0144 20.5609.0144 20.5609h-14.0509l-.0144-31.3027 14.0653-.0144s-.0144 2.516 0 3.2947c2.7107-2.581 6.6181-4.5923 11.2897-4.722m115.0453-.0001c5.2916-.1514 16.0334 3.309 15.9613 15.7018-.0144 2.2132 0 17.0427 0 17.0427h-14.0724V52.8874c0-2.7323-2.6098-5.7602-6.474-5.7602-3.857 0-6.7118 3.028-6.7118 5.7602 0 1.3337.0144 20.5609.0144 20.5609h-14.0509V42.1456l14.051-.0144s-.0145 2.516 0 3.2947c2.7034-2.581 6.6036-4.5923 11.2824-4.722m-44.5388 21.7935s.007.1442.007 1.9032c0 5.7242-3.7633 7.0002-5.854 7.0002-2.0834 0-5.926-1.276-5.926-7.0002 0-1.7158.0144-6.4595.0144-6.4595s26.6671.0144 26.6671-.0144c0-9.7036-9.372-17.742-20.8852-17.742-11.5132 0-20.842 7.8581-20.842 17.5762s9.3288 17.569 20.842 17.569c9.5522 0 17.6266-5.4502 20.085-12.8469l-14.1086.0144zm-11.7583-9.4442c-.029-2.7395.0289-4.5706.93-6.135 1.103-1.9321 3.136-2.8477 4.9816-2.8621 1.8383.0144 3.8713.93 4.9672 2.862.9011 1.5645.9516 3.3956.93 6.1351zM369.576 31.5408c1.3769 0 2.6097-.0865 2.6097-1.7447 0-1.3265-1.204-1.5644-2.3358-1.5644h-2.206v3.309zm-1.9322 6.027h-1.622v-10.713h4.066c2.5376 0 3.792.93 3.792 3.0495 0 1.9176-1.2039 2.7467-2.7755 2.9486l3.0423 4.7148h-1.8167l-2.8333-4.65h-1.8528v4.65z" fill="#ed1c24"/><path d="M369.5975 39.9612c4.2102 0 7.5265-3.2946 7.5265-7.7716 0-4.4048-3.3163-7.7139-7.5265-7.7139-4.2462 0-7.5697 3.309-7.5697 7.714 0 4.4769 3.3235 7.7715 7.5697 7.7715m-9.4297-7.7716c0-5.3348 4.3184-9.2639 9.4297-9.2639 5.0681 0 9.3937 3.929 9.3937 9.264 0 5.378-4.3256 9.3215-9.3937 9.3215-5.1113 0-9.4297-3.9435-9.4297-9.3216" fill="#ed1c24"/></svg>